<svg width="16" height="16" viewBox="0 0 16 16" fill="none" xmlns="http://www.w3.org/2000/svg">
<g id="Frame">
<path id="Vector" d="M13.2545 13.8659C13.2366 13.8786 13.2199 13.8929 13.2048 13.9089L13.2089 13.9061C13.223 13.8939 13.2377 13.8822 13.2511 13.8694L13.2545 13.8659ZM4.28 2.09217C4.26594 2.10436 4.25125 2.11607 4.23781 2.12889L4.23438 2.13248C4.25226 2.1197 4.26889 2.10526 4.28406 2.08936L4.28 2.09217Z" fill="currentColor"/>
<path id="Vector_2" d="M14.0122 1.56406C13.7169 1.19734 13.2358 1.01656 12.7739 1.01562H4.69591C4.14404 1.0175 3.57607 1.29391 3.30935 1.79297C3.18513 2.02547 3.14263 2.27359 3.14263 2.53266V10.3198H2.96513C2.68804 10.3194 2.42049 10.421 2.21357 10.6053C2.03747 10.7605 1.94623 10.9667 1.87732 11.1856C1.82078 11.3649 1.77548 11.5476 1.74169 11.7325C1.65701 12.2003 1.63029 12.6769 1.68419 13.1498C1.72982 13.5513 1.78123 14.0238 2.02419 14.3612C2.29966 14.7441 2.72091 14.9767 3.19607 14.9814H11.2481C11.7637 14.9814 12.2794 14.9856 12.795 14.9814C13.4626 14.9761 14.1544 14.5517 14.3034 13.868C14.3347 13.7255 14.34 13.5886 14.34 13.4461V2.48438C14.34 2.13937 14.2287 1.8325 14.0122 1.56406ZM4.17966 2.18469C4.18759 2.17466 4.19499 2.16423 4.20185 2.15344C4.20341 2.15625 4.19201 2.17016 4.17966 2.18469ZM2.87951 11.2784C2.88099 11.2772 2.88239 11.2759 2.88373 11.2745L2.87951 11.2784ZM8.86388 14.035H4.20763C3.87279 14.035 3.53794 14.0373 3.2031 14.035C3.17966 14.035 3.15623 14.0341 3.1331 14.0325C3.09123 14.0238 3.04995 14.0125 3.00951 13.9986C2.97855 13.9833 2.94845 13.9663 2.91935 13.9477L2.91107 13.942C2.89544 13.9284 2.87982 13.9156 2.86529 13.9014C2.85076 13.8872 2.83294 13.8675 2.81732 13.8502L2.81623 13.8484C2.79448 13.8156 2.77485 13.7814 2.75748 13.7461C2.69498 13.5742 2.66279 13.3853 2.63685 13.203C2.59188 12.8398 2.59073 12.4726 2.63341 12.1092C2.67076 11.8592 2.72498 11.602 2.81216 11.3633C2.81982 11.3488 2.82779 11.3345 2.83623 11.32L2.83279 11.3228L2.83732 11.3181L2.84326 11.3075L2.84482 11.3048L2.84607 11.3039L2.86169 11.2945C2.86607 11.2908 2.87013 11.2867 2.87435 11.2828H2.8756L2.86763 11.2911C2.87498 11.2867 2.88232 11.2825 2.88982 11.2784C2.90373 11.2742 2.91763 11.2703 2.93169 11.267C3.00982 11.2631 3.08794 11.267 3.16451 11.267L3.80201 11.2659L5.91279 11.262L8.4806 11.2575L10.7075 11.2536C10.8434 11.2536 10.9794 11.2536 11.1154 11.2553C10.8353 12.1548 10.8222 13.1289 11.112 14.0358H8.86404L8.86388 14.035ZM13.2248 13.8925L13.2056 13.9055C13.199 13.9111 13.1926 13.9169 13.1865 13.9228C13.192 13.9175 13.1968 13.9127 13.2022 13.9083L13.1911 13.9158C13.1533 13.9401 13.1142 13.9622 13.0737 13.9817C13.0141 14.0028 12.953 14.0194 12.8909 14.0312C12.7072 14.0469 12.5179 14.0352 12.335 14.0352H12.1147C12.0012 13.7426 11.9202 13.4384 11.8731 13.1281C11.8356 12.8045 11.8356 12.4777 11.8731 12.1541C11.923 11.8284 12.0104 11.5096 12.1337 11.2041C12.1615 11.1416 12.1908 11.0791 12.2215 11.0166C12.2986 10.8622 12.3115 10.6922 12.2215 10.5386C12.1795 10.4675 12.1198 10.4085 12.0481 10.3674C11.9765 10.3263 11.8954 10.3045 11.8128 10.3042L10.7408 10.3061L8.2656 10.3105L5.4581 10.3155L4.09013 10.318V3.39609C4.09013 3.07812 4.08748 2.76 4.09013 2.44203C4.09013 2.42312 4.09107 2.40422 4.09216 2.38547C4.09951 2.35212 4.10869 2.31921 4.11966 2.28688C4.13646 2.25356 4.15529 2.22131 4.17607 2.19031C4.19435 2.17047 4.21247 2.15047 4.23185 2.13172C4.22357 2.13594 4.23904 2.11734 4.25826 2.10453L4.27748 2.09141C4.28404 2.08578 4.29044 2.08 4.29654 2.07406C4.29107 2.07938 4.28623 2.08422 4.28091 2.08859L4.29201 2.08109C4.32973 2.05673 4.36892 2.03471 4.40935 2.01516C4.46735 1.99466 4.52678 1.97847 4.58716 1.96672C4.6831 1.95953 4.77966 1.96187 4.87576 1.96187H11.8401C12.1565 1.96187 12.4729 1.95984 12.7894 1.96187C12.8244 1.96187 12.859 1.96375 12.8937 1.96641C12.9548 1.97834 13.0149 1.9948 13.0736 2.01562C13.1108 2.03359 13.1469 2.05367 13.1819 2.07578C13.1872 2.07906 13.1975 2.08594 13.2075 2.09344C13.222 2.10578 13.2411 2.12188 13.2479 2.12844C13.2673 2.14719 13.2862 2.16656 13.304 2.18672V2.1875C13.3256 2.22063 13.3456 2.25422 13.3636 2.28891C13.3743 2.32091 13.3833 2.35345 13.3906 2.38641C13.3978 2.49281 13.3925 2.60156 13.3925 2.70703V13.5509C13.3925 13.5714 13.3925 13.5917 13.3904 13.612C13.3831 13.6454 13.3739 13.6783 13.3629 13.7106C13.3462 13.7439 13.3273 13.7762 13.3065 13.8072C13.2883 13.827 13.2701 13.847 13.2508 13.8659C13.2597 13.8616 13.2442 13.8802 13.225 13.8931L13.2248 13.8925ZM13.3029 13.8131C13.2983 13.8194 13.2801 13.8431 13.2808 13.8444C13.2794 13.8427 13.2906 13.8281 13.3029 13.8138V13.8131Z" fill="currentColor"/>
<path id="Vector_3" d="M2.87063 11.2915L2.86469 11.2953C2.86125 11.2983 2.85766 11.3012 2.85453 11.3045C2.85141 11.3078 2.84531 11.314 2.84094 11.3189L2.83984 11.3208C2.84719 11.3145 2.85734 11.3051 2.87063 11.2915ZM7.96344 4.98154H12.0166C12.2642 4.98154 12.5009 4.76373 12.49 4.50811C12.4791 4.25248 12.2822 4.03467 12.0166 4.03467H7.96344C7.71578 4.03467 7.47906 4.25248 7.49 4.50811C7.50094 4.76373 7.69797 4.98154 7.96344 4.98154ZM12.1306 7.08389H8.07766C7.83 7.08389 7.59328 7.3017 7.60422 7.55732C7.61516 7.81295 7.81219 8.03139 8.07766 8.03139H12.1306C12.3783 8.03139 12.615 7.81357 12.6041 7.55779C12.5931 7.30201 12.3961 7.08389 12.1306 7.08389Z" fill="currentColor"/>
<path id="Vector_4" d="M5.27344 4.50811C5.27344 4.63367 5.32332 4.75409 5.4121 4.84288C5.50089 4.93166 5.62131 4.98154 5.74688 4.98154C5.87244 4.98154 5.99286 4.93166 6.08165 4.84288C6.17043 4.75409 6.22031 4.63367 6.22031 4.50811C6.22031 4.38254 6.17043 4.26212 6.08165 4.17333C5.99286 4.08455 5.87244 4.03467 5.74688 4.03467C5.62131 4.03467 5.50089 4.08455 5.4121 4.17333C5.32332 4.26212 5.27344 4.38254 5.27344 4.50811Z" fill="currentColor"/>
<path id="Vector_5" d="M5.27344 7.55742C5.27344 7.68299 5.32332 7.80341 5.4121 7.89219C5.50089 7.98098 5.62131 8.03086 5.74688 8.03086C5.87244 8.03086 5.99286 7.98098 6.08165 7.89219C6.17043 7.80341 6.22031 7.68299 6.22031 7.55742C6.22031 7.43186 6.17043 7.31144 6.08165 7.22265C5.99286 7.13386 5.87244 7.08398 5.74688 7.08398C5.62131 7.08398 5.50089 7.13386 5.4121 7.22265C5.32332 7.31144 5.27344 7.43186 5.27344 7.55742Z" fill="currentColor"/>
</g>
</svg>
